# xmcd
#
# Track frame offsets:
#	150
#	10175
#	22601
#	35616
#	46009
#	60805
#	71980
#	82034
#	99360
#	108669
#
# Disc length: 1592 seconds
#
# Revision: 0
# Processed by: cddbd v1.5.2PL0 Copyright (c) Steve Scherf et al.
# Submitted via: EasyCDDAExtractor 10.2.0.1
#
DISCID=7006360a
DTITLE=The  Inspirations - From The Smokies
DYEAR=2005
DGENRE=Gospel
TTITLE0=When I Got Saved
TTITLE1=I'm A Winner Either Way
TTITLE2=I'm Not Ashamed
TTITLE3=Heaven's Mine
TTITLE4=Angel Band
TTITLE5=Forwarding Address
TTITLE6=Now I Know
TTITLE7=Not Worth A Dime
TTITLE8=Mighty Strong Hand
TTITLE9=Til The Storm Passes By
EXTD=
EXTT0=
EXTT1=
EXTT2=
EXTT3=
EXTT4=
EXTT5=
EXTT6=
EXTT7=
EXTT8=
EXTT9=
PLAYORDER=
